<?xml version="1.0" encoding="UTF-8" standalone="no"?>
<svg
   xmlns:dc="http://purl.org/dc/elements/1.1/"
   xmlns:cc="http://creativecommons.org/ns#"
   xmlns:rdf="http://www.w3.org/1999/02/22-rdf-syntax-ns#"
   xmlns:svg="http://www.w3.org/2000/svg"
   xmlns="http://www.w3.org/2000/svg"
   xmlns:xlink="http://www.w3.org/1999/xlink"
   version="1.1"
   id="Layer_1"
   x="0px"
   y="0px"
   viewBox="0 0 225 225"
   style="enable-background:new 0 0 225 225;"
   xml:space="preserve"><metadata
   id="metadata845"><rdf:RDF><cc:Work
       rdf:about=""><dc:format>image/svg+xml</dc:format><dc:type
         rdf:resource="http://purl.org/dc/dcmitype/StillImage" /><dc:title></dc:title></cc:Work></rdf:RDF></metadata><defs
   id="defs843"><linearGradient
     id="prefix__paint0_linear"
     x1="33.999001"
     x2="1"
     y1="16.181"
     y2="16.181"
     gradientUnits="userSpaceOnUse"><stop
       stop-color="#22D3EE"
       id="stop886" /><stop
       offset="1"
       stop-color="#99F6E4"
       id="stop888" /></linearGradient><linearGradient
     xlink:href="#prefix__paint0_linear"
     id="linearGradient1045"
     x1="25.4"
     y1="111.5"
     x2="197.60001"
     y2="111.5"
     gradientUnits="userSpaceOnUse" /><linearGradient
     xlink:href="#prefix__paint0_linear"
     id="linearGradient1107"
     gradientUnits="userSpaceOnUse"
     x1="25.4"
     y1="111.5"
     x2="197.60001"
     y2="111.5" /><linearGradient
     xlink:href="#prefix__paint0_linear"
     id="linearGradient894"
     gradientUnits="userSpaceOnUse"
     x1="25.4"
     y1="111.5"
     x2="197.60001"
     y2="111.5" /><linearGradient
     xlink:href="#prefix__paint0_linear"
     id="linearGradient896"
     gradientUnits="userSpaceOnUse"
     x1="25.4"
     y1="111.5"
     x2="197.60001"
     y2="111.5" /></defs>
<style
   type="text/css"
   id="style833">
	.st0{fill:none;stroke:#000000;stroke-width:20;stroke-linecap:round;stroke-miterlimit:3;}
</style>

<g
   id="Layer0_0_1_STROKES-0"
   style="fill:url(#linearGradient1107);fill-opacity:1;fill-rule:nonzero;stroke:url(#linearGradient1107)"
   transform="matrix(0.99999357,0,0,0.99999357,2.3749586e-4,-2.3089049e-4)"><path
     style="color:#000000;font-style:normal;font-variant:normal;font-weight:normal;font-stretch:normal;font-size:medium;line-height:normal;font-family:sans-serif;font-variant-ligatures:normal;font-variant-position:normal;font-variant-caps:normal;font-variant-numeric:normal;font-variant-alternates:normal;font-variant-east-asian:normal;font-feature-settings:normal;font-variation-settings:normal;text-indent:0;text-align:start;text-decoration:none;text-decoration-line:none;text-decoration-style:solid;text-decoration-color:#000000;letter-spacing:normal;word-spacing:normal;text-transform:none;writing-mode:lr-tb;direction:ltr;text-orientation:mixed;dominant-baseline:auto;baseline-shift:baseline;text-anchor:start;white-space:normal;shape-padding:0;shape-margin:0;inline-size:0;clip-rule:nonzero;display:inline;overflow:visible;visibility:visible;isolation:auto;mix-blend-mode:normal;color-interpolation:sRGB;color-interpolation-filters:linearRGB;solid-color:#000000;solid-opacity:1;vector-effect:none;fill:url(#linearGradient894);fill-opacity:1;fill-rule:nonzero;stroke:none;stroke-width:20;stroke-linecap:round;stroke-linejoin:miter;stroke-miterlimit:3;stroke-dasharray:none;stroke-dashoffset:0;stroke-opacity:1;color-rendering:auto;image-rendering:auto;shape-rendering:auto;text-rendering:auto;enable-background:accumulate;stop-color:#000000;stop-opacity:1"
     d="m 173.8,151.5 13.6,-13.6 m -152,-48 29.1,-29 m 24.9,-26 v 1 m 48,152 -0.6,-0.4 m -100.2,-48.8 0.2,-0.2 m 19.3,30.6 27.7,-27.6 m -20,-30 74.3,-74.4 m -51,151 100.5,-100.5 m -76.8,26.9 57.8,-57.8"
     id="path1130" /><path
     style="color:#000000;font-style:normal;font-variant:normal;font-weight:normal;font-stretch:normal;font-size:medium;line-height:normal;font-family:sans-serif;font-variant-ligatures:normal;font-variant-position:normal;font-variant-caps:normal;font-variant-numeric:normal;font-variant-alternates:normal;font-variant-east-asian:normal;font-feature-settings:normal;font-variation-settings:normal;text-indent:0;text-align:start;text-decoration:none;text-decoration-line:none;text-decoration-style:solid;text-decoration-color:#000000;letter-spacing:normal;word-spacing:normal;text-transform:none;writing-mode:lr-tb;direction:ltr;text-orientation:mixed;dominant-baseline:auto;baseline-shift:baseline;text-anchor:start;white-space:normal;shape-padding:0;shape-margin:0;inline-size:0;clip-rule:nonzero;display:inline;overflow:visible;visibility:visible;isolation:auto;mix-blend-mode:normal;color-interpolation:sRGB;color-interpolation-filters:linearRGB;solid-color:#000000;solid-opacity:1;vector-effect:none;fill:url(#linearGradient896);fill-opacity:1;fill-rule:nonzero;stroke:none;stroke-linecap:round;stroke-linejoin:miter;stroke-miterlimit:3;stroke-dasharray:none;stroke-dashoffset:0;stroke-opacity:1;color-rendering:auto;image-rendering:auto;shape-rendering:auto;text-rendering:auto;enable-background:accumulate;stop-color:#000000;stop-opacity:1"
     d="m 89.400391,24.900391 a 10,10 0 0 0 -10,10 v 1 a 10,10 0 0 0 10,10 10,10 0 0 0 10,-10 v -1 a 10,10 0 0 0 -10,-10 z m 48.570309,2.201171 a 10,10 0 0 0 -6.94726,2.931641 L 56.724609,104.43359 a 10,10 0 0 0 0.0098,14.14258 10,10 0 0 0 14.140625,-0.01 L 145.17581,44.165776 a 10,10 0 0 0 -0.01,-14.142578 10,10 0 0 0 -7.19532,-2.921876 z m 30.50586,19.59961 a 10,10 0 0 0 -6.94726,2.927734 l -57.80078,57.800784 a 10,10 0 0 0 0,14.14062 10,10 0 0 0 14.14257,0 l 57.80079,-57.798826 a 10,10 0 0 0 0,-14.142578 10,10 0 0 0 -7.19532,-2.927734 z M 64.394531,50.900391 a 10,10 0 0 0 -6.953125,2.916015 l -29.099609,29 a 10,10 0 0 0 -0.02539,14.142578 10,10 0 0 0 14.142578,0.02344 l 29.09961,-29 a 10,10 0 0 0 0.02539,-14.140625 10,10 0 0 0 -7.189453,-2.941406 z M 187.47656,77.601562 a 10,10 0 0 0 -6.94726,2.927735 L 80.029297,181.0293 a 10,10 0 0 0 0,14.14258 10,10 0 0 0 14.142578,0 L 194.67188,94.671875 a 10,10 0 0 0 0,-14.142578 10,10 0 0 0 -7.19532,-2.927735 z m -0.19922,50.298828 a 10,10 0 0 0 -6.94922,2.92773 l -13.5996,13.60157 a 10,10 0 0 0 0,14.14062 10,10 0 0 0 14.14257,0 L 194.4707,144.9707 a 10,10 0 0 0 0,-14.14258 10,10 0 0 0 -7.19336,-2.92773 z M 36.675781,128.5 a 10,10 0 0 0 -6.947265,2.92969 l -0.199219,0.19922 a 10,10 0 0 0 0,14.14257 10,10 0 0 0 14.142578,0 l 0.199219,-0.20117 a 10,10 0 0 0 0,-14.14062 A 10,10 0 0 0 36.675781,128.5 Z m 47.019531,3 a 10,10 0 0 0 -6.953124,2.91602 l -27.701172,27.5996 a 10,10 0 0 0 -0.02539,14.14258 10,10 0 0 0 14.142578,0.0254 L 90.857422,148.58398 A 10,10 0 0 0 90.884766,134.44141 10,10 0 0 0 83.695312,131.5 Z m 53.134768,46 a 10,10 0 0 0 -8.34961,4.45312 10,10 0 0 0 2.77344,13.86719 l 0.59961,0.40039 a 10,10 0 0 0 13.86718,-2.77343 10,10 0 0 0 -2.77343,-13.86719 l -0.59961,-0.40039 A 10,10 0 0 0 136.83008,177.5 Z"
     id="path1132" /></g><style
   type="text/css"
   id="style963">
	.st0{fill:none;stroke:#000000;stroke-width:20;stroke-linecap:round;stroke-miterlimit:3;}
</style></svg>
